<mxfile host="app.diagrams.net" modified="2020-12-19T11:42:41.219Z" agent="5.0 (Windows NT 10.0; Win64; x64) AppleWebKit/537.36 (KHTML, like Gecko) Chrome/87.0.4280.88 Safari/537.36" etag="GZlIKaBmwVOSi23aw35x" version="14.1.1" type="github">
  <diagram id="U39a4RoZZ_HE90pveAPN" name="Page-1">
    <mxGraphModel dx="569" dy="305" grid="1" gridSize="10" guides="1" tooltips="1" connect="1" arrows="1" fold="1" page="1" pageScale="1" pageWidth="850" pageHeight="1100" math="0" shadow="0">
      <root>
        <mxCell id="0" />
        <mxCell id="1" parent="0" />
        <mxCell id="q23HU1SftKilmUoum4EI-9" style="edgeStyle=orthogonalEdgeStyle;shape=link;rounded=0;orthogonalLoop=1;jettySize=auto;html=1;exitX=1;exitY=0.5;exitDx=0;exitDy=0;entryX=0;entryY=0.44;entryDx=0;entryDy=0;entryPerimeter=0;" edge="1" parent="1" source="q23HU1SftKilmUoum4EI-1" target="q23HU1SftKilmUoum4EI-3">
          <mxGeometry relative="1" as="geometry" />
        </mxCell>
        <mxCell id="q23HU1SftKilmUoum4EI-1" value="" style="aspect=fixed;perimeter=ellipsePerimeter;html=1;align=center;shadow=0;dashed=0;spacingTop=3;image;image=img/lib/active_directory/internet_cloud.svg;" vertex="1" parent="1">
          <mxGeometry x="420" y="300" width="50" height="31.5" as="geometry" />
        </mxCell>
        <mxCell id="q23HU1SftKilmUoum4EI-7" style="edgeStyle=orthogonalEdgeStyle;rounded=0;orthogonalLoop=1;jettySize=auto;html=1;entryX=0;entryY=0.5;entryDx=0;entryDy=0;shape=link;" edge="1" parent="1" source="q23HU1SftKilmUoum4EI-2" target="q23HU1SftKilmUoum4EI-1">
          <mxGeometry relative="1" as="geometry" />
        </mxCell>
        <mxCell id="q23HU1SftKilmUoum4EI-2" value="" style="pointerEvents=1;shadow=0;dashed=0;html=1;strokeColor=none;labelPosition=center;verticalLabelPosition=bottom;verticalAlign=top;align=center;fillColor=#515151;shape=mxgraph.mscae.system_center.primary_site" vertex="1" parent="1">
          <mxGeometry x="250" y="290.75" width="38" height="50" as="geometry" />
        </mxCell>
        <mxCell id="q23HU1SftKilmUoum4EI-3" value="" style="verticalLabelPosition=bottom;html=1;verticalAlign=top;align=center;strokeColor=none;fillColor=#00BEF2;shape=mxgraph.azure.computer;pointerEvents=1;" vertex="1" parent="1">
          <mxGeometry x="600" y="295.75" width="50" height="45" as="geometry" />
        </mxCell>
        <mxCell id="q23HU1SftKilmUoum4EI-4" value="User" style="text;html=1;align=center;verticalAlign=middle;resizable=0;points=[];autosize=1;" vertex="1" parent="1">
          <mxGeometry x="605" y="270.75" width="40" height="20" as="geometry" />
        </mxCell>
        <mxCell id="q23HU1SftKilmUoum4EI-5" value="Internet" style="text;html=1;align=center;verticalAlign=middle;resizable=0;points=[];autosize=1;" vertex="1" parent="1">
          <mxGeometry x="415" y="270.75" width="60" height="20" as="geometry" />
        </mxCell>
        <mxCell id="q23HU1SftKilmUoum4EI-6" value="Server/website/service" style="text;html=1;align=center;verticalAlign=middle;resizable=0;points=[];autosize=1;" vertex="1" parent="1">
          <mxGeometry x="199" y="270" width="140" height="20" as="geometry" />
        </mxCell>
      </root>
    </mxGraphModel>
  </diagram>
</mxfile>
